Patient4_TMGait_0pt4_03_right_39_EMG.mot
version=1
nRows=30
nColumns=33
inDegrees=no
endheader
time	1LAddLong	2LGlutMax	3LGlutMed	4LIliopsoas	5LSemiMemb	6LBicFemLong	7LRecFem	8LVastMed	9LVastLat	10LGasMed	11LTibAnt	12lTibPost	13LPeroneusLong	14LSol	15LExtDigLong	16LFlexDigLong	17RAddLong	18RGlutMax	19RGlutMed	20RIliopsoas	21RSemiMemb	22RBicFemLong	23RRecFem	24RVastMed	25RVastLat	26RGasMed	27RTibAnt	28RTibPost	29RPeroneusLong	30RSol	31RExtDigLong	32RFlexDigLong
51.515	-0.021515	0.12802	-0.02182	0.052185	0.028076	-0.030518	0.10605	-0.000153	0.14801	0.032654	0.003357	-0.005646	-0.077209	0.2124	0.002747	-0.06073	0.066986	-0.65659	-0.33859	-0.007477	-0.42694	0.18082	0.15869	0.031128	0.168	0.00351	0.033569	0.1265	-0.23666	-0.29159	-0.001068	-0.016022
51.516	-0.043182	0.083466	-0.03891	0.11658	0.032654	-0.04364	0.1152	0.001373	0.15121	0.036011	-0.021362	0.016479	-0.090027	0.14465	0.023499	-0.048218	-0.1207	-0.737	0.34515	-0.12634	0.025177	0.31265	0.24048	0.11932	0.24658	-0.018768	0.058746	0.041656	-0.33112	-0.33417	-0.001831	-0.015717
51.517	-0.001373	0.075836	-0.04776	0.069733	0.024719	-0.048981	0.12283	-0.003662	0.15595	0.03067	-0.04425	0.016785	-0.082703	0.13092	0.028534	0.010223	-0.1503	-0.76126	0.43533	-0.18127	0.12436	0.16647	0.41809	0.041809	0.17349	-0.025024	0.072174	-0.02533	0.026093	-0.3421	-0.003662	-0.019379
51.518	-0.011139	0.070496	-0.065765	-0.007782	0.028992	-0.020752	0.12711	0.001984	0.15182	0.015869	-0.069427	0.0177	-0.060577	0.15488	0.15457	0.036011	-0.077057	-0.78461	-0.30258	-0.17639	0.057831	0.084229	0.55359	-0.038147	0.09613	-0.021362	0.056305	-0.098877	0.48752	-0.1796	-0.003052	-0.009918
51.519	-0.009918	0.076599	-0.079193	-0.013733	0.023041	-0.023499	0.14343	0.000458	0.15625	0.017395	-0.089722	0.020142	-0.014191	0.15121	0.10361	0.028839	-0.038452	-0.74005	0.33798	-0.10712	-0.020752	0.054626	0.55664	0.010529	0.052643	-0.023193	0.005493	-0.016327	0.10971	-0.061646	-0.010223	-0.012512
51.52	-0.001678	0.048828	-0.077515	-0.036316	0.028381	-0.045929	0.16586	-0.00473	0.16754	0.024719	-0.068817	0.006866	-0.044556	0.17761	0.019989	0.019836	-0.027618	-0.74753	0.12894	0.063782	-0.09964	0.053558	0.48859	-0.036011	-0.090485	-0.044861	0.023499	0.046234	-0.10284	0.19409	-0.003052	-0.020599
51.521	-0.004425	0.059357	-0.0914	-0.033264	0.026398	-0.020752	0.19791	-0.005188	0.17288	0.04715	0.077515	0.010986	-0.103	0.19898	0.43549	0.015717	-0.040894	-0.81207	-0.36118	0.16754	-0.14206	-0.046997	0.30502	-0.062103	-0.37933	-0.001221	0.016174	0.011292	0.168	0.13718	-0.005798	-0.010376
51.522	0.001831	0.069427	-0.10239	-0.04776	0.029297	-0.035095	0.22003	-0.004272	0.18112	0.039063	0.16754	0.009766	-0.13321	0.21286	0.41702	0.023193	-0.053101	-0.82809	-0.81528	0.22018	-0.2121	-0.12543	-0.09964	-0.10849	-0.52917	0.046692	-0.001068	-0.22736	0.43091	0.093079	-0.007629	-0.014496
51.523	0.001984	0.060425	-0.11154	-0.026855	0.028839	-0.031891	0.19333	-0.005341	0.19989	0.023651	0.23972	-0.002289	-0.075684	0.22415	-0.07782	0.016785	-0.040741	-0.83496	-1.0489	0.16495	-0.16663	-0.083618	-0.042572	0.03418	-0.19943	0.079041	0.062408	0.003662	-0.29572	-0.63217	-0.002899	-0.018921
51.524	-0.004578	0.064087	-0.11719	-0.015717	0.013275	-0.03479	0.12421	-0.000458	0.20294	0.019989	0.2385	0.012054	-0.045929	0.22095	-0.33005	0.023346	-0.04425	-0.87219	-0.3894	-0.021515	0.007172	-0.011292	0.11948	0.14038	-0.07782	-0.014191	-0.005646	-0.019684	0.14526	-0.85312	-0.00351	-0.003967
51.525	-0.000916	0.060425	-0.11871	-0.009766	0.021515	-0.035248	0.12131	-0.007477	0.20264	0.00946	0.17563	0.004578	-0.023041	0.20264	-0.37888	0.021362	-0.024719	-0.81589	0.096436	-0.036621	0.53268	-0.065308	0.16159	0.10071	-0.055389	-0.065918	-0.025635	-0.35492	-0.001678	-0.20737	-0.001068	-0.007782
51.526	-0.00946	0.052948	-0.1268	-0.002136	0.027924	-0.023651	0.11612	-0.000458	0.19699	0.022125	-0.099945	0.015564	-0.020447	0.19196	-0.29739	0.021515	-0.013733	-0.81619	0.33783	0.007172	0.39688	-0.13062	0.29862	0.085602	-0.015259	-0.028534	-0.002441	0.088654	0.024872	0.40009	-0.003052	-0.017395
51.527	-0.015106	0.020294	-0.13641	0.005035	0.027008	-0.024567	0.058441	-0.003662	0.18677	0.076599	-0.26245	-0.000763	-0.088959	0.19104	-0.12604	-0.001221	-0.019836	-0.75211	0.10696	0.079193	0.056763	-0.12375	0.22858	0.2301	0.051727	-0.013123	-0.016022	0.30365	0.2948	0.29846	-0.003052	-0.02533
51.528	-0.009155	0.024109	-0.16739	0.015106	0.020905	-0.027313	0.044098	0.002136	0.19562	0.009766	-0.10422	0.002136	0.00885	0.24933	0.072327	0.015564	-0.014038	-0.62851	-0.011139	0.09491	0.10696	-0.050659	0.28229	0.22507	0.055847	-0.012207	0.055847	0.28488	0.077209	-0.33188	-0.002136	-0.030212
51.529	-0.012512	0.019379	-0.18601	0.014038	0.021362	-0.023804	0.13412	0.001373	0.1889	-0.01297	0.10254	-0.011444	0.023346	0.26443	0.30899	0.018311	-0.018311	-0.50079	-0.53986	0.041199	0.018921	0.014191	0.22324	0.090485	0.019226	0.015106	0.071106	0.13275	-0.14603	-0.31464	-0.002747	-0.018005
51.53	-0.009766	0.013885	-0.21469	0.016785	0.019073	-0.018921	0.16464	-0.003052	0.20294	0.02533	0.25742	-0.013275	-0.046844	0.29114	0.23758	-0.003815	-0.012207	-0.45517	-0.91965	-0.030365	-0.033875	0.053253	0.12894	-0.084381	-0.010529	0.034943	0.03418	0.076599	-0.022888	0.89523	-0.006104	-0.002441
51.531	-0.009613	0.043945	-0.22446	0.003815	0.02121	-0.027008	0.15793	-0.015564	0.1947	0.001831	0.095673	-0.013428	-0.010223	0.30334	-0.33783	-0.021515	-0.012665	-0.36484	-0.24963	-0.056152	-0.020752	0.00885	0.015869	-0.039215	0.046997	0.013123	0.05249	-0.026398	0.092468	0.91034	-0.002747	-0.007019
51.532	-0.003662	0.001984	-0.24399	-0.009308	0.016022	-0.024719	0.24674	-0.007629	0.19974	-0.009766	0.1001	-0.005188	0.054474	0.31708	-0.17487	-0.006866	0.001678	-0.47089	-0.58518	0.067902	-0.003815	-0.056	0.044556	-0.007172	0.069733	-0.019379	0.063019	-0.16678	-0.005493	0.61157	0.001678	-0.005493
51.533	-0.009003	0.006409	-0.23468	-0.001221	0.022125	-0.025787	0.24902	-0.003204	0.20172	-0.012054	-0.036163	-0.002289	-0.003204	0.3038	0.44662	-0.009613	0.008545	-0.47684	-0.88654	0.18997	-0.075989	-0.038605	0.061188	0.09079	0.029449	-0.012817	0.072937	0.030823	-0.091095	0.1944	-0.00061	-0.003357
51.534	-0.003815	0.029144	-0.22293	-0.015259	0.023193	-0.041809	0.20432	-0.005493	0.18341	0.019836	0.050964	0.004425	-0.097961	0.27405	0.49866	-0.003815	0.019226	-0.40955	-0.91721	0.15961	-0.16327	-0.018921	0.045013	0.068207	0.024261	-0.007935	0.068359	0.095367	0.021973	-0.14206	0.00061	-0.007019
51.535	-0.00061	0.028534	-0.20538	-0.009766	0.024719	-0.024719	0.18631	-0.013428	0.18295	-0.007477	0.072479	0.014648	-0.055542	0.24963	-0.012817	0.007629	0.013733	-0.44525	-0.39993	0.072327	-0.29205	0.031586	0.044098	0.02182	0.011139	0.00412	0.028381	0.006561	0.092773	-0.028839	0.006409	-0.013885
51.536	0.002136	0.010681	-0.18829	0.003204	0.024567	-0.027008	0.13168	-0.005951	0.19104	-0.014648	-0.13626	0.00885	0.019379	0.1944	-0.25848	-0.015869	0.016785	-0.33539	0.46356	-0.10086	-0.15839	0.031128	-0.023651	0.002899	0.036621	0.008698	0.034027	-0.021973	-0.003204	0.20081	-0.001831	-0.016022
51.537	-0.00824	0.032196	-0.16953	-0.002441	0.028687	-0.027161	0.10132	-0.014191	0.20096	-0.024109	-0.33295	0.001221	0.079803	0.1297	-0.551	-0.027771	0.03006	-0.18433	0.67474	-0.10788	0.051117	-0.02533	-0.0177	-0.041199	0.033112	0.005341	0.020447	-0.04364	0.069122	0.16769	-0.001068	-0.012817
51.538	0.005341	0.032806	-0.14618	-0.011444	0.03006	-0.026398	0.28168	-0.00824	0.21576	0.016937	-0.20691	0.005798	0.027008	0.014038	-0.46387	-0.036163	0.045013	-0.28656	0.98282	-0.046844	0.045319	-0.081024	0.007172	-0.059662	0.053864	-0.006409	0.032043	-0.057526	0.03418	0.40878	-0.01358	-0.019989
51.539	0.00061	-0.043335	-0.13519	-0.019836	0.027008	-0.02655	0.37598	-0.011749	0.22629	0.00885	-0.14008	0.00473	-0.014191	0.096741	0.027466	-0.03952	0.030212	-0.60608	0.081177	-0.052948	-0.023804	0.003967	-0.050049	-0.005188	0.048065	0.007019	0.028687	-0.072632	0.058136	0.17929	-0.004272	-0.018158
51.54	-0.006409	-0.067902	-0.121	-0.011749	0.022278	-0.030975	0.31479	-0.010834	0.19424	-0.016785	-0.13443	0.004883	0.019073	0.039215	-0.13733	-0.023651	0.009918	-0.8255	-0.36804	-0.10483	0.11139	0.047302	-0.041809	-0.007935	0.028381	0.016937	0.012817	-0.074005	0.080719	0.034485	-0.007935	-0.019073
51.541	-0.004883	-0.0914	-0.11765	-0.024719	0.023956	-0.040436	0.32654	-0.010986	0.18463	-0.032654	-0.16541	-0.000763	0.054779	-0.025482	-0.39276	-0.029449	-0.004578	-0.95306	-0.71335	-0.088043	0.2182	-0.025635	-0.059814	-0.031586	-0.029602	-0.000458	0.013275	0.036774	0.077362	-0.22492	-0.001373	-0.011292
51.542	-0.010071	-0.067291	-0.10239	0.001526	0.016632	-0.033264	0.30853	-0.009766	0.15762	-0.065613	-0.43472	0.000763	0.12177	0.090485	0.14297	-0.029755	0.010376	-0.89203	0.041199	-0.051117	0.19486	-0.036926	-0.23056	-0.091248	-0.020447	-0.011749	0.034332	0.028076	-0.012054	-0.43686	-0.005035	-0.012665
51.543	-0.003357	-0.085449	-0.083618	0.014801	0.024261	-0.045624	0.20172	-0.011444	0.12619	-0.041504	-0.039063	0.001678	0.026245	0.15656	0.30548	-0.043335	0.010071	-0.91202	-0.27863	0.052185	0.1796	-0.04425	-0.37918	-0.10803	-0.040283	-0.002594	0.026398	-0.004578	-0.022125	-0.52307	-0.002289	-0.006409
51.544	-0.009613	-0.081329	-0.076141	0.016632	0.026855	-0.033875	0.12695	-0.00473	0.10208	-0.005188	0.081024	0.000916	-0.083313	0.080719	0.25406	-0.031128	-0.001068	-1.0526	-1.2636	0.032959	0.053864	-0.053406	-0.19073	-0.064545	-0.049744	0.000916	0.061951	-0.019989	-0.18662	-0.2243	-0.006256	0.000763
